<svg width="42" height="37" viewBox="0 0 42 37" fill="none" xmlns="http://www.w3.org/2000/svg">
<g clip-path="url(#clip0)">
<path d="M1.01676 2.40985L1.00884 2.40287L1.00069 2.39616C0.771851 2.20768 0.681265 2.042 0.650509 1.90652C0.620082 1.7725 0.630038 1.58804 0.751905 1.32672C0.871951 1.08643 1.02086 0.93183 1.1919 0.832216C1.36768 0.729834 1.60657 0.662648 1.93671 0.662648L40.062 0.662648C40.062 0.662648 40.0622 0.662648 40.0623 0.662648C40.3932 0.662811 40.6321 0.730067 40.8078 0.832392C40.9787 0.93192 41.1276 1.08641 41.248 1.32687C41.3699 1.58841 41.3799 1.77287 41.3495 1.90679C41.3188 2.04213 41.2283 2.20771 40.9994 2.39619L40.9912 2.40293L40.9833 2.40995L26.2989 15.3463L26.0834 15.5361V15.8234V35.2935C26.0834 35.5431 26.02 35.7168 25.9202 35.8497C25.8174 35.9866 25.6411 36.1263 25.341 36.2435C25.1435 36.3091 24.9685 36.3372 24.8127 36.3372C24.4204 36.3372 24.1332 36.2205 23.9046 36.0083L23.8985 36.0026L23.8923 35.9971L16.268 29.2806C16.0111 29.0539 15.9172 28.828 15.9172 28.576V15.8233V15.536L15.7016 15.3462L1.01676 2.40985Z" fill="#6994C3" stroke="#F2F2F2" stroke-width="1.27181"/>
</g>
<defs>
<clipPath id="clip0">
<rect width="42" height="37" fill="white"/>
</clipPath>
</defs>
</svg>
